HIERARCHY
ROOT SpineBase
{
  OFFSET 0.000000 0.000000 0.000000
  CHANNELS 6 Xposition Yposition Zposition Zrotation Xrotation Yrotation
  JOINT SpineMid
  {
    OFFSET 0.000000 27.399655 0.000000
    CHANNELS 3 Zrotation Xrotation Yrotation
    JOINT SpineShoulder
    {
      OFFSET -0.082235 20.524258 -0.626455
      CHANNELS 3 Zrotation Xrotation Yrotation
      JOINT Neck
      {
        OFFSET -0.003457 6.876082 -0.504741
        CHANNELS 3 Zrotation Xrotation Yrotation
        JOINT Head
        {
          OFFSET 4.439671 13.475018 1.463411
          CHANNELS 3 Zrotation Xrotation Yrotation
          End Site
          {
            OFFSET 0 0 0
          }
        }
      }
      JOINT ShoulderLeft
      {
        OFFSET -11.474551 0.762518 -10.272692
        CHANNELS 3 Zrotation Xrotation Yrotation
        JOINT ElbowLeft
        {
          OFFSET -2.109696 -21.001764 -10.595720
          CHANNELS 3 Zrotation Xrotation Yrotation
          JOINT WristLeft
          {
            OFFSET 9.350483 -14.528544 -10.918466
            CHANNELS 3 Zrotation Xrotation Yrotation
            JOINT HandLeft
            {
              OFFSET 1.625356 -2.487390 -3.333195
              CHANNELS 3 Zrotation Xrotation Yrotation
              JOINT HandTipLeft
              {
                OFFSET 2.518590 -1.162897 -4.051195
                CHANNELS 3 Zrotation Xrotation Yrotation
                End Site
                {
                  OFFSET 0 0 0
                }
              }
              JOINT ThumbLeft
              {
                OFFSET -0.449740 -1.602744 -6.781597
                CHANNELS 3 Zrotation Xrotation Yrotation
                End Site
                {
                  OFFSET 0 0 0
                }
              }
            }
          }
        }
      }
      JOINT ShoulderRight
      {
        OFFSET 13.510407 -5.434181 8.785437
        CHANNELS 3 Zrotation Xrotation Yrotation
        JOINT ElbowRight
        {
          OFFSET 6.215330 -25.018882 -4.074133
          CHANNELS 3 Zrotation Xrotation Yrotation
          JOINT WristRight
          {
            OFFSET 5.723001 -13.235153 -15.170049
            CHANNELS 3 Zrotation Xrotation Yrotation
            JOINT HandRight
            {
              OFFSET 5.376255 -1.443081 -4.979984
              CHANNELS 3 Zrotation Xrotation Yrotation
              JOINT HandTipRight
              {
                OFFSET 4.182170 -5.401918 -4.093860
                CHANNELS 3 Zrotation Xrotation Yrotation
                End Site
                {
                  OFFSET 0 0 0
                }
              }
              JOINT ThumbRight
              {
                OFFSET -2.190001 -1.031173 -3.508280
                CHANNELS 3 Zrotation Xrotation Yrotation
                End Site
                {
                  OFFSET 0 0 0
                }
              }
            }
          }
        }
      }
    }
  }
  JOINT HipLeft
  {
    OFFSET -5.419553 1.852238 -7.192323
    CHANNELS 3 Zrotation Xrotation Yrotation
    JOINT KneeLeft
    {
      OFFSET 8.548554 3.900734 -31.148147
      CHANNELS 3 Zrotation Xrotation Yrotation
      JOINT AnkleLeft
      {
        OFFSET 5.179018 -33.248754 1.711119
        CHANNELS 3 Zrotation Xrotation Yrotation
        JOINT FootLeft
        {
          OFFSET 8.380954 -1.183337 -12.413726
          CHANNELS 3 Zrotation Xrotation Yrotation
          End Site
          {
            OFFSET 0 0 0
          }
        }
      }
    }
  }
  JOINT HipRight
  {
    OFFSET 6.463987 1.068831 1.024217
    CHANNELS 3 Zrotation Xrotation Yrotation
    JOINT KneeRight
    {
      OFFSET 24.201725 1.006186 -14.732460
      CHANNELS 3 Zrotation Xrotation Yrotation
      JOINT AnkleRight
      {
        OFFSET -8.883843 -31.706403 -9.983843
        CHANNELS 3 Zrotation Xrotation Yrotation
        JOINT FootRight
        {
          OFFSET -8.517251 2.739333 -12.004762
          CHANNELS 3 Zrotation Xrotation Yrotation
          End Site
          {
            OFFSET 0 0 0
          }
        }
      }
    }
  }
}
MOTION
Frames: 10
Frame Time: 0.033333
-61.451435 34.972337 358.291207 1.095446 3.052133 -22.823120 -0.937300 -0.843442 22.766894 -0.478497 -0.133803 -0.060360 -2.330590 4.208973 -1.775064 0.000000 0.000000 0.000000 1.571812 -0.045449 -0.666655 -0.575244 -1.556783 1.015189 4.425373 4.520320 -3.064080 -9.344964 -18.324230 -16.284766 0.000000 0.000000 0.000000 0.000000 0.000000 0.000000 83.790380 9.381311 -15.858362 -22.912199 -7.800625 -39.963711 -16.817629 -13.785299 12.923355 47.475371 -9.507541 -8.285586 0.000000 0.000000 0.000000 0.000000 0.000000 0.000000 0.173768 -3.237934 22.798847 1.697805 -0.841517 -0.031147 -14.956464 -8.479724 -86.339084 0.000000 0.000000 0.000000 -4.617648 -9.818924 22.563364 7.004653 3.313945 -0.338247 -1.574289 3.306249 0.758905 0.000000 0.000000 0.000000
-61.467968 34.978405 358.293508 0.832219 2.944529 -22.349624 -1.017004 -0.932642 22.285859 -0.460751 -0.145444 -0.073650 -2.149181 4.780557 -1.828884 0.000000 0.000000 0.000000 1.921436 -0.160682 -0.606607 -0.553634 -0.982885 1.139739 4.289612 5.958296 -2.039096 -11.059462 -21.528837 -19.274377 0.000000 0.000000 0.000000 0.000000 0.000000 0.000000 85.731932 9.431449 -16.461752 -25.849264 -9.869561 -39.367212 -16.310464 -13.269845 11.096152 45.886401 -5.600909 -7.900214 0.000000 0.000000 0.000000 0.000000 0.000000 0.000000 0.349886 -3.039724 22.337518 1.463562 -0.468801 0.008271 -11.085600 -7.979716 -87.411856 0.000000 0.000000 0.000000 -4.627783 -9.773321 22.152258 7.270565 3.266674 -0.393278 -1.336960 3.115817 0.957299 0.000000 0.000000 0.000000
-61.497648 34.982609 358.304958 0.564272 2.802321 -21.854803 -1.075753 -0.990659 21.785431 -0.464872 -0.163293 -0.087869 -1.454519 5.296214 -1.930471 0.000000 0.000000 0.000000 2.315810 -0.253680 -0.572896 -0.671503 -0.338046 1.398143 3.846813 5.300627 -1.802650 -11.733431 -22.493380 -22.058321 0.000000 0.000000 0.000000 0.000000 0.000000 0.000000 85.427927 8.566833 -16.015164 -25.631051 -8.933547 -39.333385 -15.081655 -12.118822 9.780671 46.265504 -5.045490 -7.237279 0.000000 0.000000 0.000000 0.000000 0.000000 0.000000 0.598397 -3.650731 21.724945 2.036863 -0.145879 0.064401 -15.490422 -8.425704 -86.845385 0.000000 0.000000 0.000000 -4.587483 -9.581751 21.561341 7.313667 3.232442 -0.244317 -1.320107 3.294537 1.049529 0.000000 0.000000 0.000000
-61.523064 34.986767 358.322797 0.279694 2.628952 -21.427598 -1.104443 -1.038010 21.354091 -0.452537 -0.182826 -0.099748 -0.790738 5.888829 -2.052945 0.000000 0.000000 0.000000 2.595106 -0.283999 -0.507293 -0.812537 0.359779 1.748425 3.485682 3.380938 -2.365379 -12.230562 -22.166208 -20.870109 0.000000 0.000000 0.000000 0.000000 0.000000 0.000000 84.608737 7.954511 -15.613014 -23.577927 -7.383269 -39.959810 -14.906656 -12.908308 9.627485 45.575596 -4.828146 -6.403094 0.000000 0.000000 0.000000 0.000000 0.000000 0.000000 0.781525 -3.511916 21.273700 2.485624 -0.641169 0.028592 -20.864114 -9.295508 -84.026577 0.000000 0.000000 0.000000 -4.473261 -9.289175 21.040415 7.254056 3.231278 -0.091802 -1.534955 3.737526 1.132066 0.000000 0.000000 0.000000
-61.565252 34.984898 358.340876 0.008313 2.451970 -21.085331 -1.134523 -1.075671 21.007153 -0.437631 -0.194651 -0.110794 -0.191797 6.401457 -2.156486 0.000000 0.000000 0.000000 2.525312 -0.104046 -0.306714 -0.580121 0.437140 1.683544 3.116288 2.762207 -2.209089 -13.641980 -23.437012 -22.710400 0.000000 0.000000 0.000000 0.000000 0.000000 0.000000 84.878259 7.379099 -15.510199 -23.425670 -6.764356 -40.175198 -14.700727 -13.760604 8.857687 43.693844 -3.950341 -5.164876 0.000000 0.000000 0.000000 0.000000 0.000000 0.000000 0.954251 -3.357512 20.890620 2.911610 -1.088668 0.018462 -26.356395 -11.662721 -74.965400 0.000000 0.000000 0.000000 -4.361042 -9.023266 20.658274 7.327175 3.253477 -0.046510 -2.060108 4.425636 1.288871 0.000000 0.000000 0.000000
-61.579635 34.989223 358.358889 -0.245913 2.267871 -20.815830 -1.115326 -1.062047 20.736796 -0.405322 -0.193312 -0.116702 0.206451 6.843246 -2.247494 0.000000 0.000000 0.000000 2.417380 0.114627 -0.149753 -0.390101 0.267924 1.538201 2.873781 3.169365 -1.598469 -14.532547 -24.496249 -24.550545 0.000000 0.000000 0.000000 0.000000 0.000000 0.000000 85.143174 7.327637 -15.661478 -23.664451 -7.077342 -40.123313 -14.587459 -14.033290 8.192783 46.566887 1.827435 -8.018393 0.000000 0.000000 0.000000 0.000000 0.000000 0.000000 1.121188 -3.181196 20.647532 3.345466 -1.435214 -0.040090 -31.702449 -18.789488 -51.359567 0.000000 0.000000 0.000000 -4.264214 -8.781303 20.370731 7.434307 3.351592 -0.052318 -1.839152 4.015590 1.502852 0.000000 0.000000 0.000000
-61.575852 34.993491 358.385359 -0.459323 2.090617 -20.557565 -1.083552 -1.026870 20.478843 -0.380165 -0.181122 -0.120607 0.363862 7.178389 -2.292777 0.000000 0.000000 0.000000 2.284009 0.545707 -0.033594 -0.229722 -0.341228 1.310349 3.167594 2.746213 -2.180344 -12.552285 -21.999624 -20.480788 0.000000 0.000000 0.000000 0.000000 0.000000 0.000000 85.434845 7.424267 -15.878509 -23.877670 -7.585917 -40.097967 -14.611001 -13.522287 8.152623 45.484193 3.934271 -7.685616 0.000000 0.000000 0.000000 0.000000 0.000000 0.000000 1.258575 -3.024498 20.445719 3.609488 -1.549052 -0.108335 -22.231728 -25.184473 0.380901 0.000000 0.000000 0.000000 -4.177752 -8.533749 20.091974 7.482533 3.564609 -0.080636 -1.418375 3.249679 1.775039 0.000000 0.000000 0.000000
-61.537473 35.001505 358.400654 -0.656177 1.941730 -20.312358 -1.009971 -0.939606 20.237309 -0.333013 -0.158425 -0.119578 0.389813 7.430759 -2.338693 0.000000 0.000000 0.000000 2.278660 0.963807 -0.039249 -0.287567 -1.057674 1.162560 3.589816 2.934622 -2.555284 -14.255513 -23.642217 -21.925177 0.000000 0.000000 0.000000 0.000000 0.000000 0.000000 85.575307 7.152431 -15.835170 -23.983169 -7.569850 -40.178102 -14.765924 -12.450791 8.727263 43.100326 4.729532 -6.314671 0.000000 0.000000 0.000000 0.000000 0.000000 0.000000 1.399723 -2.900585 20.311600 3.680273 -1.553919 -0.227849 -12.476550 -20.476332 39.056438 0.000000 0.000000 0.000000 -4.096096 -8.324703 19.830064 7.516624 3.619653 -0.065048 -1.676137 3.555614 1.866438 0.000000 0.000000 0.000000
-61.487472 35.012564 358.400251 -0.811327 1.834617 -20.141013 -0.906219 -0.848651 20.071286 -0.293746 -0.135744 -0.116422 0.320996 7.605953 -2.372436 0.000000 0.000000 0.000000 2.294357 1.291973 -0.085365 -0.364018 -1.649885 1.047162 3.561409 2.412839 -2.845103 -14.770179 -23.771562 -22.017646 0.000000 0.000000 0.000000 0.000000 0.000000 0.000000 85.656468 6.712850 -15.677250 -24.115517 -7.152301 -40.255485 -15.288911 -11.217511 10.069914 41.297158 2.663030 -5.145929 0.000000 0.000000 0.000000 0.000000 0.000000 0.000000 1.523134 -2.860011 20.247848 3.642861 -1.414983 -0.338351 -8.834545 -8.768032 52.904460 0.000000 0.000000 0.000000 -4.025428 -8.170051 19.626303 7.536447 3.567498 -0.004994 -2.387139 4.553802 1.786464 0.000000 0.000000 0.000000
-61.438521 35.028454 358.361425 -0.943999 1.781952 -19.970713 -0.824560 -0.801986 19.903814 -0.275858 -0.117761 -0.115970 0.222634 7.799351 -2.402886 0.000000 0.000000 0.000000 2.257572 1.580339 -0.081974 -0.362417 -2.172831 0.921387 3.979004 2.310191 -3.428360 -14.296846 -23.115845 -21.643708 0.000000 0.000000 0.000000 0.000000 0.000000 0.000000 85.773599 6.172981 -15.451723 -24.119595 -6.537974 -40.425817 -15.395698 -10.115196 10.827643 38.525183 -1.108692 -2.910386 0.000000 0.000000 0.000000 0.000000 0.000000 0.000000 1.644796 -2.964442 20.134896 3.534406 -1.146265 -0.402223 -7.723597 -0.974469 55.050860 0.000000 0.000000 0.000000 -3.958992 -8.061300 19.329146 7.551178 3.454036 0.160983 -3.234142 5.768393 1.593369 0.000000 0.000000 0.000000
